<svg width="60" height="60" viewBox="0 0 60 60" fill="none" xmlns="http://www.w3.org/2000/svg">
<path d="M13.5425 42.9097C12.6652 42.9097 12.2266 42.7445 12.2266 42.4141C12.2266 42.3457 12.2664 42.2033 12.3462 41.9868L21.1816 20.0776C21.3184 19.7586 21.5405 19.5251 21.8481 19.377C22.1558 19.2288 22.5545 19.1548 23.0444 19.1548H23.7793C24.2008 19.1548 24.5199 19.2004 24.7363 19.2915C24.9528 19.3826 25.061 19.5023 25.061 19.6504C25.061 19.7757 25.0212 19.9181 24.9414 20.0776L16.106 41.9868C15.8667 42.6021 15.2515 42.9097 14.2603 42.9097H13.5425ZM24.7876 42.9097C23.9103 42.9097 23.4717 42.7445 23.4717 42.4141C23.4717 42.3457 23.5116 42.2033 23.5913 41.9868L32.4268 20.0776C32.5635 19.7586 32.7856 19.5251 33.0933 19.377C33.4009 19.2288 33.7996 19.1548 34.2896 19.1548H35.0244C35.446 19.1548 35.765 19.2004 35.9814 19.2915C36.1979 19.3826 36.3062 19.5023 36.3062 19.6504C36.3062 19.7757 36.2663 19.9181 36.1865 20.0776L27.3511 41.9868C27.1118 42.6021 26.4966 42.9097 25.5054 42.9097H24.7876ZM36.0327 42.9097C35.1554 42.9097 34.7168 42.7445 34.7168 42.4141C34.7168 42.3457 34.7567 42.2033 34.8364 41.9868L43.6719 20.0776C43.8086 19.7586 44.0308 19.5251 44.3384 19.377C44.646 19.2288 45.0448 19.1548 45.5347 19.1548H46.2695C46.6911 19.1548 47.0101 19.2004 47.2266 19.2915C47.443 19.3826 47.5513 19.5023 47.5513 19.6504C47.5513 19.7757 47.5114 19.9181 47.4316 20.0776L38.5962 41.9868C38.3569 42.6021 37.7417 42.9097 36.7505 42.9097H36.0327Z" fill="#27A58A"/>
</svg>
