<svg width="60" height="60" viewBox="0 0 60 60" fill="none" xmlns="http://www.w3.org/2000/svg">
<rect x="0.5" y="0.5" width="59" height="59" rx="1.5" stroke="#EA5E5E"/>
<path d="M17.4731 40.5513C16.9832 40.5513 16.5959 40.5057 16.311 40.4146C16.0262 40.312 15.8496 40.1468 15.7812 39.9189L9.21875 20.3853C9.1276 20.1118 9.08203 19.9295 9.08203 19.8384C9.08203 19.3826 9.70296 19.1548 10.9448 19.1548H11.936C12.95 19.1548 13.5482 19.4567 13.7305 20.0605L17.832 33.2026L18.1738 34.2622H18.2935L18.6353 33.2026L22.8394 20.0605C23.0444 19.4567 23.6483 19.1548 24.6509 19.1548H25.5737C26.7928 19.1548 27.4023 19.3826 27.4023 19.8384C27.4023 20.0435 27.3682 20.2257 27.2998 20.3853L20.7373 39.9189C20.6689 40.1468 20.4867 40.312 20.1904 40.4146C19.9056 40.5057 19.5239 40.5513 19.0454 40.5513H17.4731ZM31.6235 40.5513C30.4045 40.5513 29.7949 40.2323 29.7949 39.5942V20.4365C29.7949 20.015 29.8918 19.7131 30.0854 19.5308C30.2791 19.3371 30.5868 19.2402 31.0083 19.2402H37.3999C39.2912 19.2402 40.966 19.7017 42.4243 20.6245C43.8826 21.5474 44.6118 23.3019 44.6118 25.8882C44.6118 27.6655 44.1903 29.0498 43.3472 30.041C42.5041 31.0208 41.5527 31.6816 40.4932 32.0234C39.445 32.3652 38.5107 32.5361 37.6904 32.5361H34.4775V39.5942C34.4775 40.2323 33.868 40.5513 32.6489 40.5513H31.6235ZM37.1777 28.52C37.9069 28.52 38.5278 28.3263 39.0405 27.939C39.5646 27.5516 39.8267 26.868 39.8267 25.8882C39.8267 24.897 39.5646 24.202 39.0405 23.8032C38.5164 23.4045 37.8955 23.2051 37.1777 23.2051H34.4775V28.52H37.1777ZM47.5171 40.5513C46.298 40.5513 45.6885 40.2323 45.6885 39.5942V36.7915C45.6885 36.1421 46.298 35.8174 47.5171 35.8174H48.4912C49.1178 35.8174 49.5736 35.9028 49.8584 36.0737C50.1546 36.2332 50.3027 36.4725 50.3027 36.7915V39.5942C50.3027 40.2323 49.6989 40.5513 48.4912 40.5513H47.5171Z" fill="#EA5E5E"/>
</svg>
